<?xml version="1.0" standalone="no"?>
<!DOCTYPE svg PUBLIC "-//W3C//DTD SVG 20010904//EN"
 "http://www.w3.org/TR/2001/REC-SVG-20010904/DTD/svg10.dtd">
<svg version="1.0" xmlns="http://www.w3.org/2000/svg"
 width="2700.000000pt" height="2700.000000pt" viewBox="0 0 2700.000000 2700.000000"
 preserveAspectRatio="xMidYMid meet">
<metadata>
Created by potrace 1.14, written by Peter Selinger 2001-2017
</metadata>
<g transform="translate(0.000000,2700.000000) scale(0.100000,-0.100000)"
fill="#000000" stroke="none">
<path d="M12969 23716 c-2 -2 -49 -7 -104 -11 -55 -3 -109 -8 -120 -10 -11 -2
-40 -7 -65 -10 -25 -3 -56 -7 -70 -9 -14 -3 -41 -7 -60 -10 -308 -49 -638
-156 -955 -312 -693 -340 -1320 -948 -1812 -1757 -232 -382 -419 -767 -628
-1297 -90 -227 -224 -633 -315 -955 -34 -121 -110 -410 -116 -445 -3 -14 -13
-56 -24 -95 -10 -38 -21 -83 -24 -100 -3 -16 -16 -79 -29 -138 -13 -60 -20
-110 -15 -113 12 -7 4 -19 80 126 36 69 89 166 119 215 30 50 58 98 64 108 35
62 184 271 266 374 135 171 203 248 354 398 393 391 817 674 1380 921 113 49
345 130 535 187 153 46 414 107 560 131 71 11 117 19 134 22 51 9 221 30 316
39 36 3 79 8 95 10 122 17 696 24 910 11 230 -14 216 -10 590 -159 192 -76
231 -93 410 -175 112 -51 443 -219 542 -275 45 -26 87 -47 92 -47 5 0 11 -4
13 -8 2 -4 32 -24 68 -44 36 -20 123 -73 194 -117 71 -45 130 -81 132 -81 2 0
277 -187 329 -224 132 -94 406 -306 544 -421 26 -21 178 -153 197 -170 706
-641 1257 -1301 1716 -2060 153 -254 369 -658 466 -875 146 -325 251 -593 343
-875 56 -170 77 -253 84 -337 4 -40 8 -84 11 -97 23 -155 23 -688 -1 -843 -2
-12 -6 -45 -10 -73 -12 -95 -16 -120 -20 -135 -3 -8 -7 -33 -10 -55 -20 -135
-104 -421 -171 -583 -200 -483 -497 -860 -964 -1225 -9 -7 -63 -44 -120 -83
-218 -148 -497 -295 -735 -388 -66 -26 -129 -51 -140 -56 -127 -56 -653 -199
-865 -235 -19 -3 -42 -8 -50 -10 -8 -2 -33 -6 -55 -9 -22 -4 -51 -8 -65 -11
-68 -12 -313 -43 -400 -50 -41 -4 -85 -8 -96 -10 -22 -3 -192 -13 -339 -20
-109 -5 -490 -5 -595 0 -190 9 -321 17 -343 20 -12 2 -60 6 -107 10 -47 3 -98
8 -115 10 -16 2 -52 7 -80 10 -104 12 -144 17 -275 36 -74 11 -146 22 -160 24
-14 3 -43 7 -65 10 -22 4 -58 10 -80 15 -22 5 -53 11 -70 14 -86 15 -289 60
-435 96 -1060 262 -1963 697 -2634 1270 -146 124 -302 286 -434 450 -42 52
-79 97 -82 100 -40 40 -206 318 -265 443 -81 174 -158 415 -179 557 -24 168
-28 227 -28 380 0 306 53 565 183 895 40 103 42 106 127 183 535 480 1229 843
2010 1053 64 18 133 35 152 39 153 34 283 61 315 66 20 3 47 8 59 10 30 6 202
31 265 39 30 4 62 8 73 10 10 2 55 7 101 10 45 3 91 8 102 10 130 26 1004 26
1185 0 14 -2 57 -6 95 -10 39 -3 88 -8 110 -11 22 -2 63 -6 90 -9 28 -3 61 -8
75 -10 14 -3 45 -7 70 -10 25 -3 70 -10 100 -15 77 -13 109 -18 155 -25 22 -4
110 -20 195 -37 85 -16 164 -32 175 -34 33 -6 484 -121 560 -142 163 -46 586
-184 675 -220 14 -6 52 -20 85 -32 33 -12 69 -26 80 -31 72 -31 201 -79 212
-79 40 0 -7 33 -317 227 -91 57 -178 111 -195 122 -24 15 -282 164 -370 213
-432 242 -1045 523 -1490 683 -430 155 -915 290 -1310 366 -121 23 -389 66
-460 74 -33 4 -87 10 -120 15 -33 5 -98 12 -145 15 -47 4 -92 8 -100 10 -35
10 -333 20 -575 20 -231 0 -430 -7 -550 -20 -22 -2 -76 -7 -120 -10 -44 -3
-87 -8 -95 -10 -8 -2 -40 -7 -70 -10 -99 -11 -357 -54 -477 -80 -293 -63 -704
-186 -888 -265 -11 -5 -81 -34 -155 -66 -158 -67 -413 -195 -555 -279 -94 -56
-404 -260 -415 -274 -3 -3 -39 -31 -80 -63 -41 -31 -85 -65 -96 -75 -12 -10
-54 -45 -93 -78 -92 -78 -362 -352 -429 -435 -29 -36 -59 -72 -67 -81 -9 -9
-40 -49 -70 -90 -30 -41 -58 -78 -63 -84 -27 -33 -168 -256 -217 -343 -47 -85
-118 -231 -164 -337 -11 -25 -62 -160 -91 -239 -48 -134 -115 -426 -135 -586
-4 -30 -9 -64 -11 -75 -6 -33 -18 -254 -18 -335 0 -87 12 -297 19 -355 9 -67
34 -229 39 -250 3 -11 12 -54 21 -95 22 -104 94 -352 107 -367 6 -7 8 -13 5
-13 -5 0 39 -116 80 -213 35 -82 167 -343 216 -426 72 -122 176 -277 280 -416
81 -107 118 -153 247 -300 62 -70 332 -338 425 -421 447 -399 986 -754 1647
-1085 141 -71 259 -129 262 -129 2 0 40 -16 83 -36 42 -20 139 -62 214 -95 76
-32 166 -76 201 -97 261 -160 730 -391 1056 -521 430 -171 958 -338 1315 -416
180 -39 311 -66 392 -81 50 -9 97 -17 105 -19 64 -12 299 -47 405 -61 147 -18
151 -19 257 -28 43 -4 90 -9 105 -11 34 -4 229 -16 338 -21 99 -4 625 -4 720
1 109 5 257 16 285 21 14 3 144 7 290 9 263 4 486 11 630 20 163 9 237 15 380
30 25 3 92 9 150 15 58 6 116 13 130 15 14 2 48 7 75 10 28 3 75 10 105 15 30
5 73 11 95 15 22 3 63 9 90 15 28 5 67 12 87 14 21 3 57 10 80 15 24 6 59 13
78 16 111 19 535 122 600 145 14 5 79 25 145 45 397 122 807 299 1165 503 170
97 558 362 595 406 6 7 17 17 26 22 87 49 480 436 590 579 13 17 26 32 29 35
3 3 19 23 36 45 16 22 34 46 41 55 71 89 223 313 223 329 0 5 4 11 8 13 19 7
175 301 250 470 170 385 284 795 337 1213 3 28 8 61 10 75 5 35 17 172 21 250
5 85 5 555 0 600 -2 19 -7 80 -11 135 -4 55 -8 107 -10 115 -1 8 -6 49 -11 90
-4 41 -8 77 -9 80 -1 3 -5 30 -9 60 -62 440 -196 935 -380 1404 -61 154 -76
190 -149 351 -41 92 -238 480 -265 525 -12 19 -22 41 -22 49 0 13 -81 197
-173 392 -25 51 -59 126 -77 164 -42 91 -340 687 -350 700 -4 6 -36 64 -70
130 -278 529 -772 1334 -1083 1766 -23 31 -49 67 -57 79 -45 65 -241 333 -250
340 -3 3 -25 32 -49 65 -91 123 -449 567 -480 595 -4 3 -33 37 -66 75 -267
311 -651 705 -976 1000 -185 168 -487 417 -651 537 -12 9 -32 24 -43 33 -96
76 -437 308 -560 382 -156 94 -257 153 -261 153 -2 0 -21 11 -42 24 -120 75
-485 249 -717 341 -218 87 -529 188 -675 219 -184 40 -375 77 -424 82 -33 3
-63 7 -66 9 -3 1 -43 6 -90 10 -47 4 -94 9 -105 12 -25 5 -481 14 -486 9z"/>
<path d="M10033 7471 c-65 -57 -190 -169 -247 -222 -34 -31 -86 -78 -116 -104
-30 -27 -60 -54 -66 -59 -9 -9 -137 -125 -188 -171 -52 -46 -220 -198 -256
-231 -25 -23 -97 -88 -160 -145 -63 -56 -120 -108 -126 -113 -6 -6 -44 -40
-84 -76 -40 -36 -78 -70 -84 -75 -6 -6 -60 -55 -121 -110 -60 -54 -128 -115
-150 -135 -22 -21 -94 -86 -160 -145 -66 -60 -160 -145 -210 -189 -107 -97
-198 -179 -205 -186 -3 -3 -45 -41 -95 -85 -49 -44 -95 -84 -101 -90 -6 -5
-53 -48 -105 -95 -52 -47 -121 -110 -154 -140 -49 -46 -228 -207 -271 -245 -7
-5 -51 -46 -99 -90 -49 -44 -111 -100 -138 -125 -28 -25 -65 -58 -83 -75 -18
-16 -60 -55 -94 -85 -34 -30 -72 -64 -84 -75 -82 -74 -217 -196 -311 -280 -60
-55 -112 -102 -115 -105 -3 -3 -43 -39 -90 -80 -47 -41 -89 -80 -95 -86 -5 -6
-52 -48 -104 -95 -52 -46 -102 -91 -111 -99 -32 -30 -196 -178 -239 -216 -121
-107 -164 -151 -157 -162 5 -8 271 -11 1000 -11 l994 0 53 47 c80 70 118 104
149 132 15 14 67 61 116 105 48 44 118 107 154 140 36 32 80 73 99 90 18 16
46 41 61 55 14 14 64 59 111 100 46 41 91 81 100 90 9 8 51 47 94 85 44 39 93
84 110 100 18 17 49 45 71 64 37 33 150 134 258 232 124 113 258 234 386 349
63 57 122 110 131 119 9 9 31 30 50 46 34 30 324 290 345 310 6 5 48 44 94 85
46 41 88 80 94 85 6 6 46 41 89 79 l77 68 0 -576 c0 -542 -1 -576 -17 -577
-10 0 -229 -1 -488 -1 -258 0 -475 -4 -480 -9 -12 -9 -14 -1187 -2 -1206 12
-18 2322 -18 2334 0 13 20 12 4196 -1 4206 -6 5 -309 8 -672 8 l-662 0 -29
-26z"/>
<path d="M12052 7486 c-11 -17 -10 -4189 1 -4203 7 -10 161 -12 672 -12 619 0
664 1 669 17 3 9 5 956 5 2104 0 1594 -3 2089 -12 2096 -18 14 -1326 12 -1335
-2z"/>
<path d="M16904 7488 c-9 -14 -9 -1191 -1 -1205 4 -6 281 -10 804 -11 439 0
810 -1 825 -1 l27 -1 0 -1490 c0 -819 2 -1494 5 -1498 6 -10 1331 -10 1340 -1
3 3 6 672 6 1487 0 814 2 1487 5 1494 4 11 159 13 825 12 526 -1 823 3 827 9
4 7 8 1050 4 1189 l-1 26 -2330 0 c-1645 0 -2332 -3 -2336 -10z"/>
<path d="M15458 6815 c-2 -1 -48 -5 -103 -9 -164 -10 -390 -65 -545 -133 -589
-258 -987 -781 -1068 -1403 -9 -74 -9 -379 1 -459 42 -338 221 -717 457 -966
111 -117 282 -258 365 -300 16 -9 50 -28 75 -44 64 -39 241 -115 335 -144 214
-66 393 -87 645 -77 82 3 244 30 340 55 305 81 589 246 807 467 227 230 369
478 457 796 24 87 27 100 47 247 36 266 -17 642 -123 875 -12 25 -27 61 -35
80 -38 89 -177 305 -252 390 -85 96 -176 182 -261 247 -30 23 -59 46 -65 50
-65 52 -297 175 -402 214 -155 56 -319 93 -455 104 -89 7 -216 13 -220 10z
m207 -1044 c346 -80 586 -377 586 -726 0 -298 -186 -574 -462 -686 -39 -16
-83 -31 -98 -34 -235 -48 -455 -6 -621 118 -63 47 -164 148 -185 186 -98 176
-124 269 -121 423 3 128 10 166 48 269 26 71 94 174 158 239 128 129 237 184
445 223 37 7 200 -1 250 -12z"/>
</g>
</svg>
